<svg xmlns="http://www.w3.org/2000/svg" viewBox="0 0 608 125">
    <path fill="#FFFFFF" d="M207.202,20.722 L212.604,20.722 L212.604,36.391 L219.358,36.391 L225.572,11.537 L225.572,1.543 L207.202,1.543 L207.202,20.722 Z M125.078,42.064 C129.13,42.064 131.02,45.306 131.02,70.701 L117.784,70.701 C118.324,45.306 120.485,42.064 125.078,42.064 L125.078,42.064 Z M149.661,93.123 L141.016,93.123 L141.016,96.095 C141.016,108.522 137.503,114.465 130.209,114.465 C121.835,114.465 117.783,109.061 117.783,80.695 L117.783,78.535 L150.74,78.535 C150.74,45.306 143.446,32.339 125.077,32.339 C106.707,32.339 94.82,51.249 94.82,80.427 C94.82,109.332 106.166,125 125.617,125 C142.366,125 149.66,115.545 149.66,95.555 L149.66,93.123 L149.661,93.123 Z M379.08,42.064 C383.132,42.064 385.023,45.306 385.023,70.701 L372.531,70.701 C373.071,45.306 374.487,42.064 379.08,42.064 L379.08,42.064 Z M403.663,93.123 L395.018,93.123 L395.018,96.095 C395.018,108.522 391.506,114.465 384.212,114.465 C375.837,114.465 372.53,109.061 372.53,80.695 L372.53,78.535 L404.743,78.535 C404.743,45.306 397.449,32.339 379.079,32.339 C360.709,32.339 348.823,51.249 348.823,80.426 C348.823,109.332 360.17,125 379.62,125 C396.369,125 403.663,115.545 403.663,95.555 L403.663,93.123 Z M523.067,125 C535.224,125 540.357,117.436 540.357,106.629 L540.357,93.123 L532.253,93.123 L532.253,106.629 C532.253,112.304 531.442,114.193 528.741,114.193 C526.309,114.193 525.499,112.572 525.499,107.439 L525.499,42.604 L540.357,42.604 L540.357,34.23 L525.769,34.23 L525.769,9.106 L517.394,9.106 L504.967,35.31 L497.673,35.31 L497.673,42.334 L504.156,42.334 L504.156,102.306 C504.157,117.976 506.859,125 523.067,125 L523.067,125 Z M460.393,56.382 C460.393,39.633 452.83,32.61 436.621,32.61 C420.412,32.61 409.336,44.226 409.336,58.004 L409.336,63.407 L427.977,63.407 L427.977,50.709 C427.977,43.415 429.598,40.714 433.65,40.714 C437.703,40.714 439.323,43.145 439.323,50.709 L439.323,65.568 C414.74,73.941 407.176,80.156 407.176,100.957 C407.176,117.166 413.659,125 424.736,125 C434.191,125 438.514,118.516 440.945,114.465 L440.945,123.379 L464.988,123.379 L464.988,116.084 L460.395,116.084 L460.395,56.382 L460.393,56.382 Z M601.139,116.084 L601.139,52.059 C601.139,38.822 595.196,32.609 584.66,32.609 C571.963,32.609 566.83,42.064 566.83,42.064 L566.83,0.462 L540.086,3.434 L540.086,10.457 L546.299,10.457 L546.299,116.084 L541.977,116.084 L541.977,123.379 L571.694,123.379 L571.694,116.084 L567.372,116.084 L567.372,60.164 C567.372,50.439 570.073,46.387 574.935,46.387 C578.447,46.387 579.797,48.548 579.797,53.951 L579.797,116.084 L574.935,116.084 L574.935,123.379 L607.082,123.379 L607.082,116.084 L601.139,116.084 Z M439.322,73.131 L439.322,100.686 C439.322,108.791 437.702,112.034 433.109,112.034 C429.598,112.034 427.976,109.061 427.976,99.337 C427.976,82.857 429.327,78.805 439.322,73.131 L439.322,73.131 Z M344.706,116.084 L344.706,8.837 L350.92,8.837 L350.92,1.812 L313.909,1.812 L313.909,8.836 L321.473,8.836 L321.473,59.083 L297.701,59.083 L297.701,8.837 L305.535,8.837 L305.535,1.812 L267.984,1.812 L267.984,8.836 L274.468,8.836 L274.468,116.083 L267.984,116.083 L267.984,123.378 L305.535,123.378 L305.535,116.083 L297.701,116.083 L297.701,67.459 L321.473,67.459 L321.473,116.084 L313.909,116.084 L313.909,123.379 L350.92,123.379 L350.92,116.084 L344.706,116.084 Z M493.351,116.084 L493.351,0.462 L465.526,3.434 L465.526,10.457 L472.28,10.457 L472.28,116.084 L467.958,116.084 L467.958,123.379 L499.835,123.379 L499.835,116.084 L493.351,116.084 Z M266.634,99.336 C266.634,70.701 235.838,68.809 235.838,49.898 C235.838,43.415 239.079,40.173 244.212,40.173 C252.046,40.173 256.099,48.007 256.639,64.485 L263.662,64.485 L263.662,37.471 C263.662,37.471 255.828,32.609 243.941,32.609 C229.624,32.609 218.007,40.713 218.007,57.192 C218.007,84.207 247.993,87.99 247.993,106.359 C247.993,113.654 244.481,117.166 238.807,117.166 C230.162,117.166 225.84,109.602 225.3,90.961 L218.277,90.961 L218.277,120.138 C218.277,120.138 226.922,125 239.618,125 C255.288,125 266.634,116.084 266.634,99.336 L266.634,99.336 Z M90.769,116.084 L90.769,8.837 L96.442,8.837 L96.442,1.812 L64.835,1.812 L49.167,70.16 L32.418,1.812 L0,1.812 L0,8.836 L6.754,8.836 L6.754,116.083 L0,116.083 L0,123.378 L24.853,123.378 L24.853,116.083 L17.019,116.083 L17.019,40.713 L36.74,123.378 L48.086,123.378 L67.536,40.173 L67.536,116.083 L60.242,116.083 L60.242,123.378 L96.442,123.378 L96.442,116.083 L90.769,116.083 L90.769,116.084 Z M210.443,116.084 L210.443,52.059 C210.443,38.822 204.501,32.609 194.235,32.609 C181.538,32.609 176.405,42.064 176.405,42.064 L176.405,32.609 L149.39,35.581 L149.39,42.875 L155.604,42.875 L155.604,116.084 L149.121,116.084 L149.121,123.379 L181.267,123.379 L181.267,116.084 L176.945,116.084 L176.945,60.164 C176.945,50.439 179.647,46.387 184.509,46.387 C188.021,46.387 189.371,48.548 189.371,53.951 L189.371,116.084 L184.509,116.084 L184.509,123.379 L214.765,123.379 L214.765,116.084 L210.443,116.084 Z"></path>&gt;
</svg>
